<svg id="svg" version="1.1" xmlns="http://www.w3.org/2000/svg" xmlns:xlink="http://www.w3.org/1999/xlink" width="400" height="227.72727272727272" viewBox="0, 0, 400,227.72727272727272"><g id="svgg"><path id="path0" d="M79.727 24.146 L 79.727 29.841 82.460 29.841 L 85.194 29.841 85.194 35.294 L 85.194 40.747 87.814 40.818 C 89.414 40.861,90.471 40.800,90.529 40.661 C 90.582 40.535,90.633 42.976,90.643 46.084 L 90.661 51.735 93.395 51.665 L 96.128 51.595 96.128 57.005 L 96.128 62.415 98.861 62.415 L 101.595 62.415 101.595 65.148 L 101.595 67.882 104.328 67.882 L 107.062 67.882 107.062 62.528 L 107.062 57.175 104.713 57.175 C 101.236 57.175,101.579 58.449,101.649 45.786 L 101.708 34.966 107.062 34.852 C 113.507 34.715,112.984 34.978,112.984 31.877 L 112.984 29.385 110.251 29.385 L 107.517 29.385 107.517 26.651 L 107.517 23.918 102.050 23.918 L 96.583 23.918 96.583 21.185 L 96.583 18.451 88.155 18.451 L 79.727 18.451 79.727 24.146 M303.417 32.118 L 303.417 34.852 295.203 34.852 L 286.989 34.852 287.059 37.583 C 287.104 39.309,287.046 40.305,286.902 40.289 C 286.777 40.276,283.061 40.277,278.645 40.292 L 270.615 40.319 270.615 43.052 L 270.615 45.786 265.148 45.786 L 259.681 45.786 259.681 48.297 L 259.681 50.809 260.290 51.040 C 261.101 51.348,275.635 51.284,276.025 50.970 C 276.221 50.813,276.310 49.972,276.310 48.264 L 276.310 45.786 276.936 45.764 C 278.006 45.726,279.700 45.724,283.656 45.756 L 287.472 45.786 287.472 56.834 L 287.472 67.882 290.205 67.882 L 292.938 67.882 292.938 65.148 L 292.938 62.415 295.672 62.415 L 298.405 62.415 298.405 59.681 L 298.405 56.948 301.139 56.948 L 303.872 56.948 303.872 54.328 L 303.872 51.708 306.606 51.708 L 309.339 51.708 309.357 48.804 C 309.367 47.207,309.418 46.002,309.471 46.128 C 309.529 46.267,310.586 46.328,312.186 46.285 L 314.806 46.214 314.806 43.494 L 314.806 40.774 317.540 40.774 L 320.273 40.774 320.273 35.080 L 320.273 29.385 311.845 29.385 L 303.417 29.385 303.417 32.118 M113.034 37.528 L 113.098 40.205 118.059 40.266 C 124.318 40.344,123.918 40.543,123.918 37.350 L 123.918 34.852 118.444 34.852 L 112.970 34.852 113.034 37.528 M123.918 42.914 C 123.918 45.935,123.788 45.786,126.427 45.786 C 129.401 45.786,129.385 45.802,129.385 42.830 L 129.385 40.319 126.651 40.319 L 123.918 40.319 123.918 42.914 M129.301 46.298 C 129.225 46.580,129.162 47.704,129.160 48.796 C 129.156 51.238,129.175 51.253,132.331 51.253 L 134.624 51.253 134.624 53.751 C 134.624 56.971,134.227 56.775,140.558 56.681 L 145.545 56.606 145.608 59.226 L 145.672 61.845 148.349 61.909 L 151.025 61.973 151.025 64.700 L 151.025 67.426 153.759 67.426 L 156.492 67.426 156.492 70.159 L 156.492 72.893 159.226 72.893 L 161.959 72.893 161.959 70.159 L 161.959 67.426 159.226 67.426 L 156.492 67.426 156.492 64.692 L 156.492 61.959 153.759 61.959 L 151.025 61.959 151.025 59.339 L 151.025 56.720 148.405 56.720 L 145.786 56.720 145.786 53.986 L 145.786 51.253 143.052 51.253 L 140.319 51.253 140.319 48.519 L 140.319 45.786 134.879 45.786 L 129.438 45.786 129.301 46.298 M248.975 53.846 C 248.975 56.992,248.427 56.713,254.594 56.717 C 260.432 56.721,259.909 57.003,259.909 53.848 L 259.909 51.253 254.442 51.253 L 248.975 51.253 248.975 53.846 M238.041 59.339 L 238.041 61.959 235.308 61.959 L 232.574 61.959 232.574 64.692 L 232.574 67.426 205.410 67.453 C 190.470 67.468,178.166 67.467,178.068 67.451 C 177.970 67.434,177.919 68.627,177.954 70.100 L 178.018 72.779 199.750 72.837 C 215.348 72.879,221.569 72.967,221.789 73.150 C 222.012 73.335,222.096 74.083,222.096 75.882 L 222.096 78.360 224.594 78.360 L 227.093 78.360 227.157 75.683 L 227.221 73.007 229.897 72.943 L 232.574 72.878 232.574 70.152 L 232.574 67.426 235.308 67.426 L 238.041 67.426 238.041 64.692 L 238.041 61.959 243.508 61.959 L 248.975 61.959 248.975 59.339 L 248.975 56.720 243.508 56.720 L 238.041 56.720 238.041 59.339 M107.062 70.729 L 107.062 73.349 109.795 73.349 L 112.528 73.349 112.528 70.729 L 112.528 68.109 109.795 68.109 L 107.062 68.109 107.062 70.729 M282.005 70.729 L 282.005 73.349 279.784 73.352 C 276.323 73.356,276.538 73.167,276.538 76.222 L 276.538 78.815 271.431 78.815 C 265.008 78.815,265.604 78.522,265.604 81.687 L 265.604 84.282 263.230 84.282 C 259.926 84.282,260.137 84.086,260.137 87.154 L 260.137 89.749 257.764 89.749 C 254.479 89.749,254.670 89.587,254.670 92.386 L 254.670 94.746 257.346 94.811 L 260.023 94.875 260.087 97.551 L 260.151 100.228 262.877 100.228 L 265.604 100.228 265.604 108.428 L 265.604 116.629 267.977 116.629 C 269.282 116.629,270.512 116.566,270.710 116.490 C 271.029 116.368,271.071 115.432,271.071 108.290 L 271.071 100.228 268.337 100.228 L 265.604 100.228 265.604 97.722 L 265.604 95.216 268.337 95.216 L 271.071 95.216 271.071 92.483 L 271.071 89.749 273.804 89.749 L 276.538 89.749 276.538 87.016 L 276.538 84.282 279.271 84.282 L 282.005 84.282 282.005 81.549 L 282.005 78.815 284.738 78.815 L 287.472 78.815 287.472 73.462 L 287.472 68.109 284.738 68.109 L 282.005 68.109 282.005 70.729 M162.244 73.044 C 162.039 73.126,161.959 73.891,161.959 75.752 L 161.959 78.345 164.636 78.410 L 167.312 78.474 167.376 81.158 L 167.441 83.842 169.996 83.777 L 172.551 83.713 172.665 81.093 L 172.779 78.474 175.276 78.409 C 176.923 78.366,177.834 78.249,177.949 78.067 C 178.203 77.668,178.173 74.168,177.910 73.477 L 177.688 72.893 170.108 72.911 C 165.939 72.921,162.400 72.981,162.244 73.044 M113.041 73.509 C 112.545 73.605,112.528 73.693,112.528 76.212 L 112.528 78.815 115.262 78.815 L 117.995 78.815 117.995 76.220 C 117.995 74.064,117.935 73.602,117.635 73.487 C 117.240 73.335,113.859 73.352,113.041 73.509 M118.394 78.973 C 118.044 79.064,117.995 79.392,117.995 81.680 L 117.995 84.282 120.729 84.282 L 123.462 84.282 123.462 81.687 C 123.462 79.531,123.401 79.069,123.102 78.954 C 122.696 78.798,119.007 78.812,118.394 78.973 M123.975 84.443 C 123.479 84.539,123.462 84.627,123.462 87.146 L 123.462 89.749 126.196 89.749 L 128.929 89.749 128.929 87.154 C 128.929 84.998,128.868 84.536,128.569 84.421 C 128.174 84.269,124.793 84.286,123.975 84.443 M135.023 84.528 C 134.682 84.727,134.624 85.120,134.624 87.255 L 134.624 89.749 132.289 89.753 C 128.699 89.757,128.929 89.561,128.929 92.623 L 128.929 95.216 131.655 95.216 L 134.381 95.216 134.446 97.665 L 134.510 100.114 137.183 100.178 L 139.855 100.242 139.916 94.825 L 139.977 89.408 142.654 89.344 L 145.330 89.279 145.330 86.919 C 145.330 84.977,145.266 84.534,144.970 84.421 C 144.350 84.183,135.451 84.279,135.023 84.528 M128.929 108.303 L 128.929 116.392 129.442 116.520 C 129.724 116.591,130.928 116.618,132.118 116.582 L 134.282 116.515 134.282 108.428 L 134.282 100.342 131.606 100.278 L 128.929 100.213 128.929 108.303 M156.648 106.298 C 156.562 106.384,156.492 107.510,156.492 108.801 L 156.492 111.147 159.169 111.211 L 161.845 111.276 161.845 114.123 L 161.845 116.970 159.112 116.970 L 156.378 116.970 156.264 114.351 L 156.150 111.731 153.645 111.731 L 151.139 111.731 151.139 116.856 L 151.139 121.982 153.759 122.096 L 156.378 122.210 156.492 124.829 L 156.606 127.449 161.845 127.449 L 167.084 127.449 167.148 124.779 L 167.213 122.110 169.882 122.046 L 172.551 121.982 172.551 116.856 L 172.551 111.731 169.882 111.667 L 167.213 111.603 167.148 108.934 L 167.084 106.264 161.944 106.203 C 159.117 106.170,156.734 106.212,156.648 106.298 M222.252 106.298 C 222.166 106.384,222.096 107.513,222.096 108.808 L 222.096 111.162 224.556 111.162 C 227.638 111.162,227.564 111.088,227.559 114.112 C 227.555 117.271,227.722 117.112,224.469 117.035 L 221.754 116.970 221.640 114.351 L 221.526 111.731 219.134 111.731 L 216.743 111.731 216.681 116.913 L 216.620 122.096 219.220 122.096 C 222.292 122.096,222.096 121.884,222.096 125.189 L 222.096 127.563 227.328 127.563 L 232.560 127.563 232.624 124.886 L 232.688 122.210 235.308 122.096 L 237.927 121.982 237.927 116.856 L 237.927 111.731 235.308 111.617 L 232.688 111.503 232.574 108.884 L 232.460 106.264 227.434 106.203 C 224.670 106.169,222.338 106.212,222.252 106.298 M123.462 127.422 L 123.462 138.216 123.975 138.353 C 124.645 138.532,128.105 138.536,128.569 138.358 C 128.891 138.235,128.929 137.058,128.929 127.424 L 128.929 116.629 126.196 116.629 L 123.462 116.629 123.462 127.422 M271.175 116.913 C 271.115 117.070,271.093 121.965,271.125 127.790 L 271.185 138.383 273.349 138.449 C 274.539 138.486,275.743 138.459,276.025 138.388 L 276.538 138.260 276.538 127.444 L 276.538 116.629 273.911 116.629 C 272.020 116.629,271.254 116.708,271.175 116.913 M183.876 135.934 L 183.941 138.383 189.066 138.383 L 194.191 138.383 194.256 135.934 L 194.321 133.485 189.066 133.485 L 183.811 133.485 183.876 135.934 M117.995 152.392 L 117.995 166.287 120.369 166.287 C 121.674 166.287,122.904 166.225,123.102 166.149 C 123.425 166.025,123.462 164.588,123.462 152.254 L 123.462 138.497 120.729 138.497 L 117.995 138.497 117.995 152.392 M276.689 138.648 C 276.606 138.732,276.538 147.291,276.538 157.669 L 276.538 176.538 278.911 176.538 C 280.216 176.538,281.446 176.600,281.644 176.676 C 281.968 176.800,282.005 178.478,282.005 193.305 L 282.005 209.795 284.738 209.795 L 287.472 209.795 287.472 190.547 L 287.472 171.298 284.738 171.298 L 282.005 171.298 282.005 154.897 L 282.005 138.497 279.423 138.497 C 278.003 138.497,276.773 138.565,276.689 138.648 M183.827 158.010 L 183.827 160.666 191.723 160.515 C 196.066 160.432,200.883 160.364,202.429 160.364 L 205.239 160.364 205.239 157.859 L 205.239 155.353 194.533 155.353 L 183.827 155.353 183.827 158.010 M178.409 163.383 L 178.474 165.945 181.036 166.010 L 183.599 166.074 183.599 163.447 L 183.599 160.820 180.972 160.820 L 178.345 160.820 178.409 163.383 M205.695 168.679 L 205.695 176.538 208.200 176.538 L 210.706 176.538 210.706 168.679 L 210.706 160.820 208.200 160.820 L 205.695 160.820 205.695 168.679 M123.614 166.439 C 123.531 166.522,123.462 168.931,123.462 171.792 L 123.462 176.993 126.196 176.993 L 128.929 176.993 128.929 171.640 L 128.929 166.287 126.348 166.287 C 124.928 166.287,123.698 166.355,123.614 166.439 M189.413 177.178 C 189.347 177.243,189.294 178.356,189.294 179.651 L 189.294 182.005 197.274 182.005 L 205.255 182.005 205.190 179.556 L 205.125 177.107 197.329 177.083 C 193.040 177.070,189.478 177.112,189.413 177.178 M128.930 185.137 L 128.930 193.052 126.196 192.982 L 123.462 192.912 123.462 198.620 L 123.462 204.328 126.189 204.328 L 128.916 204.328 128.980 201.424 L 129.043 198.519 131.720 198.455 L 134.396 198.391 134.396 187.806 L 134.396 177.221 131.663 177.221 L 128.929 177.221 128.930 185.137 " stroke="none" fill="#070404" fill-rule="evenodd"></path><path id="path1" d="M102.202 35.687 C 102.118 35.771,102.050 40.435,102.050 46.052 L 102.050 56.264 104.645 56.264 C 107.811 56.264,107.517 55.669,107.517 62.092 L 107.517 67.198 110.112 67.198 C 113.180 67.198,112.984 66.987,112.984 70.292 L 112.984 72.665 115.579 72.665 C 118.647 72.665,118.451 72.454,118.451 75.759 L 118.451 78.132 121.046 78.132 C 124.114 78.132,123.918 77.921,123.918 81.226 L 123.918 83.599 126.513 83.599 C 129.581 83.599,129.385 83.388,129.385 86.693 L 129.385 89.066 131.883 89.066 L 134.382 89.066 134.446 86.390 L 134.510 83.713 140.007 83.652 L 145.503 83.591 145.641 84.108 C 145.872 84.969,145.802 89.293,145.550 89.764 C 145.339 90.159,145.053 90.205,142.817 90.205 L 140.319 90.205 140.319 95.314 C 140.319 101.540,140.532 101.139,137.227 101.139 L 134.852 101.139 134.848 108.941 C 134.847 113.232,134.766 116.867,134.669 117.019 C 134.553 117.201,133.643 117.318,131.996 117.361 L 129.499 117.426 129.440 128.075 L 129.380 138.724 134.729 138.724 L 140.077 138.724 140.141 141.401 L 140.205 144.077 142.886 144.142 L 145.566 144.206 145.505 149.609 L 145.444 155.011 142.775 155.076 L 140.105 155.140 140.041 157.809 L 139.977 160.478 131.948 160.538 L 123.918 160.598 123.918 162.987 L 123.918 165.376 126.416 165.376 C 129.589 165.376,129.385 164.970,129.385 171.283 L 129.385 176.310 131.980 176.310 C 134.137 176.310,134.599 176.371,134.714 176.670 C 134.997 177.409,134.868 198.754,134.579 199.043 C 134.400 199.222,133.455 199.317,131.845 199.317 L 129.385 199.317 129.385 201.695 C 129.385 203.035,129.286 204.135,129.157 204.214 C 129.029 204.293,128.929 205.393,128.929 206.733 L 128.929 209.112 205.239 209.112 L 281.549 209.112 281.549 193.280 L 281.549 177.449 278.954 177.449 C 276.797 177.449,276.335 177.388,276.220 177.088 C 276.144 176.890,276.082 168.280,276.082 157.954 L 276.082 139.180 273.462 139.180 C 272.022 139.180,270.821 139.154,270.794 139.123 C 270.767 139.092,270.690 134.197,270.623 128.246 L 270.501 117.426 267.963 117.362 C 264.840 117.283,265.155 118.250,265.151 108.720 L 265.148 101.154 262.585 101.089 L 260.023 101.025 259.959 98.356 L 259.895 95.686 257.225 95.622 L 254.556 95.558 254.493 92.312 L 254.429 89.066 257.162 89.066 L 259.894 89.066 259.959 86.390 L 260.023 83.713 262.585 83.649 L 265.148 83.584 265.151 81.371 C 265.153 80.153,265.216 78.927,265.292 78.645 L 265.429 78.132 270.755 78.132 L 276.082 78.132 276.082 75.759 C 276.082 72.454,275.886 72.665,278.954 72.665 L 281.549 72.665 281.549 70.292 C 281.549 66.987,281.353 67.198,284.421 67.198 L 287.016 67.198 287.016 56.834 L 287.016 46.469 281.784 46.469 L 276.552 46.469 276.488 49.146 L 276.424 51.822 268.287 51.882 L 260.151 51.942 260.087 54.616 L 260.023 57.289 254.727 57.350 L 249.431 57.412 249.431 59.700 C 249.431 63.129,249.896 62.870,243.728 62.870 L 238.497 62.870 238.497 65.163 C 238.497 68.400,238.556 68.337,235.527 68.337 L 233.030 68.337 233.030 70.630 C 233.030 73.867,233.089 73.804,230.060 73.804 L 227.563 73.804 227.563 76.264 C 227.563 79.361,227.655 79.271,224.466 79.271 C 221.451 79.271,221.640 79.478,221.640 76.177 L 221.640 73.804 200.007 73.804 L 178.374 73.804 178.310 76.481 L 178.246 79.157 175.577 79.221 L 172.907 79.285 172.843 81.955 L 172.779 84.624 170.100 84.688 L 167.420 84.753 167.195 84.161 C 167.072 83.836,166.970 82.606,166.970 81.428 L 166.970 79.286 164.408 79.222 L 161.845 79.157 161.781 76.488 L 161.717 73.818 159.048 73.754 L 156.378 73.690 156.314 71.021 L 156.250 68.351 153.581 68.287 L 150.911 68.223 150.847 65.554 L 150.783 62.884 148.114 62.820 L 145.444 62.756 145.380 60.084 L 145.316 57.411 139.913 57.350 L 134.510 57.289 134.446 54.620 L 134.382 51.951 131.713 51.886 L 129.043 51.822 128.979 49.153 L 128.915 46.484 126.246 46.419 L 123.576 46.355 123.512 43.683 L 123.448 41.010 118.045 40.949 L 112.642 40.888 112.578 38.212 L 112.514 35.535 107.434 35.535 C 104.640 35.535,102.285 35.604,102.202 35.687 M167.476 108.144 L 167.540 110.820 170.216 110.884 L 172.893 110.948 172.893 116.864 L 172.893 122.779 170.520 122.779 C 167.215 122.779,167.426 122.583,167.426 125.651 L 167.426 128.246 161.845 128.246 L 156.264 128.246 156.264 125.651 C 156.264 122.583,156.475 122.779,153.170 122.779 L 150.797 122.779 150.797 116.864 L 150.797 110.948 153.474 110.884 L 156.150 110.820 156.215 108.144 L 156.279 105.467 161.845 105.467 L 167.412 105.467 167.476 108.144 M232.912 105.979 C 232.977 106.261,233.056 107.466,233.087 108.656 L 233.144 110.820 235.681 110.884 C 238.767 110.962,238.490 110.374,238.490 116.856 C 238.490 123.339,238.767 122.751,235.681 122.829 L 233.144 122.893 233.087 125.057 C 233.056 126.247,232.976 127.453,232.911 127.738 L 232.791 128.254 227.273 128.193 L 221.754 128.132 221.690 125.572 C 221.614 122.583,221.874 122.812,218.451 122.722 L 216.287 122.665 216.287 116.856 L 216.287 111.048 218.964 110.984 L 221.640 110.919 221.640 108.345 C 221.640 106.929,221.708 105.702,221.792 105.619 C 221.875 105.535,224.385 105.467,227.368 105.467 L 232.793 105.467 232.912 105.979 M194.383 132.861 C 194.725 133.112,194.767 133.523,194.711 136.107 L 194.647 139.066 189.196 139.127 C 184.987 139.174,183.703 139.123,183.562 138.899 C 183.293 138.476,183.331 133.531,183.607 133.015 C 183.902 132.463,193.648 132.324,194.383 132.861 M254.670 152.392 L 254.670 155.125 257.407 155.125 L 260.145 155.125 260.084 160.535 L 260.023 165.945 257.353 166.009 L 254.684 166.074 254.620 168.743 L 254.556 171.412 246.378 171.412 L 238.200 171.412 238.177 168.793 L 238.155 166.173 235.478 166.109 L 232.802 166.045 232.802 160.592 L 232.802 155.140 235.478 155.076 L 238.155 155.011 238.155 152.335 L 238.155 149.658 246.412 149.658 L 254.670 149.658 254.670 152.392 M205.421 154.715 C 205.600 154.894,205.695 155.839,205.695 157.449 L 205.695 159.909 208.290 159.909 C 211.493 159.909,211.162 158.897,211.162 168.679 C 211.162 178.461,211.493 177.449,208.290 177.449 L 205.695 177.449 205.695 179.822 C 205.695 181.127,205.633 182.357,205.556 182.555 C 205.346 183.104,189.187 183.104,188.977 182.555 C 188.900 182.357,188.838 181.127,188.838 179.822 L 188.838 177.449 186.341 177.449 C 183.312 177.449,183.371 177.512,183.371 174.275 L 183.371 171.982 180.874 171.982 C 177.696 171.982,177.904 172.405,177.904 165.945 C 177.904 159.486,177.696 159.909,180.874 159.909 L 183.371 159.909 183.371 157.616 C 183.371 154.073,182.079 154.442,194.495 154.442 C 202.477 154.442,205.217 154.510,205.421 154.715 M194.711 163.724 L 194.647 166.401 191.970 166.465 L 189.294 166.529 189.294 171.420 L 189.294 176.310 197.267 176.310 L 205.239 176.310 205.239 168.679 L 205.239 161.048 200.007 161.048 L 194.775 161.048 194.711 163.724 " stroke="none" fill="#fb8b04" fill-rule="evenodd"></path><path id="path2" d="M112.615 37.813 C 112.615 39.254,112.652 39.843,112.697 39.123 C 112.742 38.403,112.742 37.224,112.697 36.503 C 112.652 35.783,112.615 36.372,112.615 37.813 M123.501 43.210 C 123.480 44.612,123.539 45.807,123.633 45.865 C 123.727 45.924,123.776 45.135,123.743 44.113 C 123.637 40.920,123.541 40.559,123.501 43.210 M129.015 48.861 C 129.015 50.239,129.053 50.774,129.098 50.049 C 129.143 49.324,129.143 48.196,129.097 47.543 C 129.051 46.890,129.014 47.483,129.015 48.861 M276.395 48.861 C 276.396 50.239,276.433 50.774,276.478 50.049 C 276.524 49.324,276.523 48.196,276.477 47.543 C 276.432 46.890,276.394 47.483,276.395 48.861 M134.482 54.328 C 134.482 55.706,134.520 56.241,134.565 55.516 C 134.610 54.791,134.610 53.663,134.564 53.010 C 134.518 52.357,134.481 52.950,134.482 54.328 M178.131 76.128 C 178.069 77.595,178.099 78.714,178.197 78.615 C 178.296 78.516,178.346 77.316,178.310 75.949 L 178.244 73.462 178.131 76.128 M221.678 76.012 C 221.657 77.414,221.717 78.609,221.811 78.667 C 221.905 78.726,221.954 77.937,221.920 76.915 C 221.815 73.722,221.718 73.361,221.678 76.012 M134.482 86.674 C 134.482 88.052,134.520 88.587,134.565 87.862 C 134.610 87.137,134.610 86.009,134.564 85.356 C 134.518 84.703,134.481 85.296,134.482 86.674 M254.499 94.761 C 254.559 94.984,254.901 95.113,255.485 95.132 C 256.341 95.159,256.345 95.156,255.583 95.056 C 255.145 94.999,254.702 94.832,254.597 94.685 C 254.468 94.504,254.436 94.528,254.499 94.761 M259.967 100.228 C 260.042 100.505,260.549 100.572,262.661 100.582 L 265.262 100.595 262.765 100.517 C 261.147 100.467,260.198 100.342,260.071 100.163 C 259.930 99.965,259.901 99.983,259.967 100.228 M137.358 100.456 L 134.738 100.592 137.287 100.638 C 138.792 100.665,139.894 100.590,139.977 100.456 C 140.055 100.330,140.086 100.248,140.048 100.273 C 140.009 100.298,138.798 100.380,137.358 100.456 M221.726 108.656 C 221.726 110.097,221.763 110.686,221.808 109.966 C 221.854 109.245,221.854 108.067,221.808 107.346 C 221.763 106.626,221.726 107.215,221.726 108.656 M216.271 116.856 C 216.271 119.801,216.304 121.005,216.343 119.533 C 216.383 118.061,216.383 115.652,216.343 114.180 C 216.304 112.708,216.271 113.912,216.271 116.856 M130.589 117.025 C 131.314 117.070,132.442 117.070,133.095 117.024 C 133.748 116.978,133.155 116.941,131.777 116.942 C 130.399 116.942,129.864 116.980,130.589 117.025 M267.263 117.025 C 267.988 117.070,269.116 117.070,269.769 117.024 C 270.422 116.978,269.829 116.941,268.451 116.942 C 267.073 116.942,266.538 116.980,267.263 117.025 M152.685 122.492 C 153.410 122.537,154.537 122.537,155.191 122.491 C 155.844 122.445,155.251 122.408,153.872 122.409 C 152.494 122.409,151.960 122.447,152.685 122.492 M169.305 122.491 C 169.900 122.538,170.874 122.538,171.469 122.491 C 172.064 122.444,171.577 122.406,170.387 122.406 C 169.197 122.406,168.710 122.444,169.305 122.491 M218.061 122.492 C 218.786 122.537,219.913 122.537,220.566 122.491 C 221.220 122.445,220.626 122.408,219.248 122.409 C 217.870 122.409,217.336 122.447,218.061 122.492 M234.681 122.491 C 235.276 122.538,236.250 122.538,236.845 122.491 C 237.440 122.444,236.953 122.406,235.763 122.406 C 234.573 122.406,234.086 122.444,234.681 122.491 M221.725 125.171 C 221.726 126.549,221.763 127.083,221.809 126.358 C 221.854 125.633,221.854 124.506,221.808 123.853 C 221.762 123.200,221.725 123.793,221.725 125.171 M159.396 127.960 C 160.806 128.000,163.112 128.000,164.522 127.960 C 165.931 127.921,164.778 127.888,161.959 127.888 C 159.140 127.888,157.987 127.921,159.396 127.960 M224.772 127.960 C 226.182 128.000,228.488 128.000,229.897 127.960 C 231.307 127.921,230.154 127.888,227.335 127.888 C 224.516 127.888,223.363 127.921,224.772 127.960 M183.748 133.200 C 183.689 133.294,185.247 133.345,187.208 133.313 C 193.792 133.204,194.457 133.123,189.136 133.076 C 186.231 133.050,183.806 133.106,183.748 133.200 M194.619 135.991 C 194.619 137.432,194.656 138.021,194.701 137.301 C 194.747 136.580,194.747 135.401,194.701 134.681 C 194.656 133.961,194.619 134.550,194.619 135.991 M128.929 138.774 C 128.929 138.864,127.776 138.966,126.367 139.002 L 123.804 139.066 123.745 149.886 L 123.685 160.706 131.669 160.592 C 140.952 160.460,140.083 160.783,140.088 157.460 L 140.091 155.125 142.684 155.125 C 145.831 155.125,145.551 155.673,145.555 149.506 C 145.559 143.669,145.841 144.191,142.686 144.191 L 140.091 144.191 140.088 141.743 C 140.086 140.396,140.006 139.171,139.911 139.021 C 139.719 138.719,128.929 138.476,128.929 138.774 M238.219 152.335 L 238.155 155.011 235.478 155.076 L 232.802 155.140 232.802 160.481 L 232.802 165.823 233.314 165.941 C 233.596 166.006,234.801 166.085,235.991 166.116 L 238.155 166.173 238.219 168.736 L 238.284 171.298 246.363 171.298 L 254.442 171.298 254.442 169.039 C 254.442 165.897,254.305 166.059,256.953 166.059 C 260.215 166.059,259.909 166.640,259.909 160.454 L 259.909 155.125 257.314 155.125 C 254.246 155.125,254.442 155.336,254.442 152.031 L 254.442 149.658 246.363 149.658 L 238.283 149.658 238.219 152.335 M184.228 155.059 C 184.512 155.113,184.922 155.111,185.139 155.054 C 185.357 154.997,185.125 154.952,184.624 154.955 C 184.123 154.957,183.945 155.004,184.228 155.059 M205.342 168.679 C 205.342 173.189,205.372 175.066,205.410 172.851 C 205.447 170.635,205.447 166.945,205.410 164.650 C 205.373 162.356,205.342 164.169,205.342 168.679 M191.917 165.774 C 190.540 165.815,189.340 165.921,189.251 166.011 C 189.161 166.100,190.312 166.141,191.810 166.103 C 193.310 166.064,194.533 165.936,194.533 165.818 C 194.533 165.700,194.507 165.625,194.476 165.652 C 194.445 165.679,193.293 165.734,191.917 165.774 M178.190 171.071 C 178.266 171.349,178.785 171.415,180.998 171.424 L 183.713 171.437 181.102 171.360 C 179.392 171.309,178.423 171.187,178.294 171.006 C 178.153 170.808,178.124 170.826,178.190 171.071 M183.657 176.538 C 183.733 176.816,184.252 176.882,186.465 176.891 L 189.180 176.904 186.569 176.827 C 184.859 176.776,183.890 176.654,183.761 176.473 C 183.620 176.274,183.591 176.293,183.657 176.538 " stroke="none" fill="#d42c2c" fill-rule="evenodd"></path><path id="path3" d="M112.681 34.547 C 112.577 34.652,110.065 34.789,107.100 34.852 L 101.708 34.966 101.649 45.786 C 101.579 58.449,101.236 57.175,104.713 57.175 L 107.062 57.175 107.062 62.642 L 107.062 68.109 109.795 68.109 L 112.528 68.109 112.528 70.811 L 112.528 73.513 114.672 73.401 C 115.850 73.339,117.080 73.355,117.405 73.437 L 117.995 73.585 117.995 76.268 L 117.995 78.950 120.151 78.856 C 121.337 78.804,122.567 78.827,122.885 78.907 L 123.462 79.052 123.462 81.749 L 123.462 84.447 125.606 84.335 C 126.784 84.273,128.014 84.289,128.339 84.371 L 128.929 84.519 128.929 87.275 C 128.929 90.021,128.931 90.030,129.442 89.893 C 129.724 89.817,131.005 89.754,132.289 89.753 C 134.367 89.750,134.622 89.705,134.606 89.351 C 134.595 89.113,134.542 89.067,134.473 89.237 C 134.391 89.441,133.627 89.522,131.765 89.522 L 129.172 89.522 129.107 86.845 L 129.043 84.169 126.374 84.104 L 123.705 84.040 123.640 81.371 L 123.576 78.702 120.957 78.588 L 118.337 78.474 118.223 75.854 L 118.109 73.235 115.490 73.121 L 112.870 73.007 112.756 70.387 L 112.642 67.768 110.023 67.654 L 107.403 67.540 107.289 62.187 L 107.175 56.834 104.497 56.770 L 101.818 56.705 101.877 45.949 L 101.936 35.194 107.289 35.194 L 112.642 35.194 112.707 37.866 L 112.771 40.538 118.173 40.600 L 123.576 40.661 123.690 43.280 L 123.804 45.900 126.367 45.964 C 127.821 46.001,128.929 46.124,128.929 46.249 C 128.929 46.370,129.032 46.469,129.157 46.469 C 129.282 46.469,129.385 46.216,129.385 45.905 C 129.385 45.394,129.330 45.362,128.801 45.564 C 128.160 45.807,124.854 45.869,124.278 45.648 C 123.976 45.532,123.918 45.050,123.918 42.678 C 123.918 39.932,123.905 39.854,123.469 40.088 C 123.183 40.241,121.221 40.306,118.059 40.266 L 113.098 40.205 112.984 37.281 C 112.921 35.672,112.785 34.442,112.681 34.547 M277.050 45.743 C 276.527 45.794,276.315 45.927,276.328 46.199 C 276.339 46.436,276.390 46.474,276.461 46.298 C 276.548 46.082,277.856 46.014,281.910 46.014 L 287.244 46.014 287.244 56.826 L 287.244 67.639 284.567 67.703 L 281.891 67.768 281.827 70.437 L 281.762 73.106 279.093 73.171 L 276.424 73.235 276.360 75.907 L 276.295 78.579 270.893 78.641 L 265.490 78.702 265.426 81.378 L 265.361 84.055 262.773 84.055 C 259.714 84.055,259.909 83.844,259.909 87.148 L 259.909 89.522 257.294 89.522 C 254.216 89.522,254.377 89.345,254.499 92.597 L 254.576 94.647 254.623 92.336 C 254.678 89.598,254.494 89.749,257.764 89.749 L 260.137 89.749 260.137 87.154 C 260.137 84.086,259.926 84.282,263.230 84.282 L 265.604 84.282 265.604 81.687 C 265.604 78.522,265.008 78.815,271.431 78.815 L 276.538 78.815 276.538 76.222 C 276.538 73.167,276.323 73.356,279.784 73.352 L 282.005 73.349 282.005 70.729 L 282.005 68.109 284.738 68.109 L 287.472 68.109 287.472 56.948 L 287.472 45.786 283.713 45.757 C 281.646 45.742,279.468 45.716,278.872 45.700 C 278.277 45.685,277.457 45.704,277.050 45.743 M129.157 51.131 C 129.157 51.425,129.572 51.481,131.758 51.481 C 133.625 51.481,134.391 51.561,134.473 51.765 C 134.542 51.935,134.595 51.890,134.606 51.651 C 134.622 51.297,134.370 51.253,132.331 51.253 C 131.070 51.253,129.840 51.147,129.598 51.017 C 129.251 50.832,129.157 50.856,129.157 51.131 M259.738 50.967 C 259.832 51.020,259.909 52.283,259.909 53.773 C 259.909 57.069,260.510 56.778,253.905 56.679 L 248.974 56.606 248.975 59.282 L 248.975 61.959 243.508 61.959 L 238.041 61.959 238.041 64.692 L 238.041 67.426 235.308 67.426 L 232.574 67.426 232.574 70.152 L 232.574 72.878 229.897 72.943 L 227.221 73.007 227.157 75.683 L 227.093 78.360 224.594 78.360 L 222.096 78.360 222.096 75.882 C 222.096 74.088,222.011 73.334,221.790 73.151 C 221.480 72.893,177.724 72.745,177.847 73.002 C 177.879 73.067,177.904 73.287,177.904 73.490 C 177.904 73.776,177.975 73.802,178.214 73.603 C 178.440 73.416,184.357 73.362,200.139 73.404 L 221.754 73.462 221.868 76.082 L 221.982 78.702 224.601 78.702 L 227.221 78.702 227.285 76.032 L 227.349 73.363 230.019 73.299 L 232.688 73.235 232.752 70.565 L 232.816 67.896 235.486 67.832 L 238.155 67.768 238.219 65.095 L 238.283 62.423 243.686 62.362 L 249.089 62.301 249.153 59.624 L 249.217 56.948 254.539 56.948 C 260.730 56.948,260.137 57.276,260.137 53.854 L 260.137 51.481 268.223 51.481 C 275.531 51.481,276.310 51.445,276.310 51.111 C 276.310 50.842,276.232 50.805,276.025 50.976 C 275.722 51.226,260.543 51.253,259.909 51.005 C 259.721 50.932,259.644 50.915,259.738 50.967 M134.624 56.598 C 134.624 56.902,135.316 56.948,139.977 56.948 L 145.330 56.948 145.333 59.169 C 145.338 62.629,145.149 62.415,148.204 62.415 L 150.797 62.415 150.797 64.788 C 150.797 68.093,150.601 67.882,153.669 67.882 L 156.264 67.882 156.264 70.255 C 156.264 73.560,156.068 73.349,159.136 73.349 L 161.731 73.349 161.731 75.722 C 161.731 79.027,161.535 78.815,164.603 78.815 L 167.198 78.815 167.198 81.189 C 167.198 84.483,167.020 84.282,169.948 84.282 C 172.948 84.282,172.893 84.341,172.893 81.116 L 172.893 78.830 175.453 78.766 C 177.811 78.707,178.018 78.666,178.085 78.246 C 178.132 77.945,178.092 77.884,177.965 78.067 C 177.840 78.248,176.911 78.366,175.276 78.409 L 172.779 78.474 172.665 81.093 L 172.551 83.713 169.996 83.777 L 167.441 83.842 167.376 81.158 L 167.312 78.474 164.636 78.410 L 161.959 78.345 161.959 75.752 C 161.959 73.891,162.039 73.126,162.244 73.044 C 162.400 72.981,161.170 72.921,159.510 72.911 L 156.492 72.893 156.492 70.159 L 156.492 67.426 153.759 67.426 L 151.025 67.426 151.025 64.700 L 151.025 61.973 148.349 61.909 L 145.672 61.845 145.608 59.226 L 145.545 56.606 140.558 56.681 C 137.195 56.731,135.418 56.673,135.098 56.502 C 134.714 56.296,134.624 56.314,134.624 56.598 M134.624 84.400 C 134.624 84.679,134.717 84.704,135.065 84.518 C 135.536 84.266,144.342 84.180,144.970 84.421 C 145.266 84.534,145.330 84.977,145.330 86.919 L 145.330 89.279 142.654 89.344 L 139.977 89.408 139.916 94.818 L 139.855 100.228 137.285 100.228 C 135.872 100.228,134.618 100.130,134.499 100.011 C 134.362 99.874,134.282 102.874,134.282 108.155 L 134.282 116.515 131.606 116.515 L 128.929 116.515 128.929 127.387 L 128.929 138.260 128.352 138.405 C 128.034 138.485,126.804 138.508,125.618 138.456 L 123.462 138.362 123.462 152.210 C 123.462 162.610,123.396 166.059,123.197 166.059 C 123.050 166.059,122.993 166.121,123.069 166.198 C 123.145 166.274,124.495 166.320,126.069 166.301 L 128.929 166.267 128.929 171.744 L 128.929 177.221 131.663 177.221 L 134.396 177.221 134.396 187.806 L 134.396 198.391 131.720 198.455 L 129.043 198.519 129.032 201.367 L 129.020 204.214 129.096 201.545 L 129.172 198.875 131.841 198.811 L 134.510 198.747 134.510 187.813 L 134.510 176.879 131.838 176.815 L 129.165 176.751 129.104 171.348 L 129.043 165.945 126.365 165.881 L 123.687 165.817 123.745 152.442 L 123.804 139.066 126.367 139.002 C 127.776 138.966,128.953 138.915,128.981 138.888 C 129.009 138.861,129.086 133.918,129.152 127.904 L 129.271 116.970 131.891 116.856 L 134.510 116.743 134.624 108.656 L 134.738 100.569 137.358 100.456 L 139.977 100.342 140.038 95.073 L 140.099 89.805 140.722 89.699 C 141.064 89.641,142.052 89.619,142.918 89.652 C 145.585 89.752,145.584 89.752,145.509 86.734 L 145.444 84.169 140.034 84.107 C 135.268 84.054,134.624 84.089,134.624 84.400 M254.712 94.880 C 254.833 95.000,256.757 95.140,259.047 95.196 L 259.893 95.216 259.971 97.665 L 260.048 100.114 260.035 97.494 L 260.023 94.875 257.301 94.810 C 255.803 94.775,254.639 94.806,254.712 94.880 M262.642 100.444 L 265.262 100.569 265.376 108.656 L 265.490 116.743 268.164 116.807 L 270.838 116.871 270.898 127.741 L 270.957 138.610 273.632 138.675 L 276.307 138.739 276.365 157.809 L 276.424 176.879 279.099 176.943 L 281.774 177.008 281.834 193.458 L 281.894 209.909 281.949 193.362 C 281.999 178.450,281.969 176.800,281.644 176.676 C 281.446 176.600,280.215 176.538,278.908 176.538 L 276.533 176.538 276.540 157.484 L 276.548 138.431 273.866 138.407 L 271.185 138.383 271.134 127.467 L 271.084 116.552 268.344 116.607 L 265.604 116.662 265.604 108.445 L 265.604 100.228 262.813 100.273 L 260.023 100.319 262.642 100.444 M156.403 106.283 C 156.326 106.481,156.264 107.711,156.264 109.016 L 156.264 111.390 153.669 111.390 C 150.511 111.390,150.797 110.845,150.797 116.856 C 150.797 122.868,150.511 122.323,153.669 122.323 L 156.264 122.323 156.264 124.697 C 156.264 128.119,155.670 127.790,161.869 127.790 C 164.800 127.790,167.198 127.714,167.198 127.620 C 167.198 127.526,164.815 127.449,161.902 127.449 L 156.606 127.449 156.492 124.829 L 156.378 122.210 153.759 122.096 L 151.139 121.982 151.139 116.856 L 151.139 111.731 153.645 111.731 L 156.150 111.731 156.264 114.351 L 156.378 116.970 159.112 116.970 L 161.845 116.970 161.845 114.123 L 161.845 111.276 159.161 111.211 L 156.477 111.147 156.541 108.706 L 156.606 106.264 161.902 106.264 C 164.815 106.264,167.198 106.187,167.198 106.093 C 167.198 105.710,156.550 105.897,156.403 106.283 M221.818 108.595 L 221.754 111.276 219.077 111.340 L 216.401 111.404 216.401 116.864 L 216.401 122.323 218.996 122.323 C 222.064 122.323,221.868 122.112,221.868 125.421 L 221.868 127.799 227.278 127.738 L 232.688 127.677 232.802 125.057 L 232.916 122.437 235.535 122.323 L 238.155 122.210 238.155 116.856 L 238.155 111.503 235.535 111.390 L 232.916 111.276 232.802 108.656 L 232.688 106.036 227.285 105.975 L 221.882 105.914 221.818 108.595 M232.574 108.884 L 232.688 111.503 235.308 111.617 L 237.927 111.731 237.927 116.856 L 237.927 121.982 235.308 122.096 L 232.688 122.210 232.624 124.886 L 232.560 127.563 227.328 127.563 L 222.096 127.563 222.096 125.189 C 222.096 121.884,222.292 122.096,219.220 122.096 L 216.620 122.096 216.681 116.913 L 216.743 111.731 219.134 111.731 L 221.526 111.731 221.640 114.351 L 221.754 116.970 224.469 117.035 C 227.722 117.112,227.555 117.271,227.559 114.112 C 227.564 111.088,227.638 111.162,224.556 111.162 L 222.096 111.162 222.096 108.808 C 222.096 105.866,221.552 106.131,227.434 106.203 L 232.460 106.264 232.574 108.884 M167.247 109.041 L 167.198 111.591 169.932 111.661 C 171.436 111.700,172.666 111.654,172.666 111.560 C 172.665 111.466,171.490 111.390,170.053 111.390 L 167.441 111.390 167.368 108.941 L 167.295 106.492 167.247 109.041 M161.731 114.123 L 161.731 116.856 159.125 116.856 L 156.520 116.856 156.449 114.217 C 156.364 111.049,156.039 111.390,159.150 111.390 L 161.731 111.390 161.731 114.123 M227.221 114.123 L 227.221 116.743 224.544 116.807 L 221.868 116.871 221.868 114.123 L 221.868 111.375 224.544 111.439 L 227.221 111.503 227.221 114.123 M172.762 116.856 C 172.762 119.550,172.795 120.652,172.835 119.305 C 172.875 117.958,172.875 115.755,172.835 114.408 C 172.795 113.061,172.762 114.163,172.762 116.856 M169.875 122.038 L 167.198 122.110 167.247 124.666 L 167.295 127.221 167.368 124.772 L 167.441 122.323 170.053 122.323 C 171.643 122.323,172.665 122.234,172.665 122.096 C 172.665 121.970,172.640 121.890,172.608 121.917 C 172.577 121.944,171.347 121.998,169.875 122.038 M183.697 133.558 C 183.634 133.723,183.612 134.927,183.648 136.234 L 183.713 138.610 189.123 138.672 L 194.533 138.733 194.533 135.995 L 194.533 133.257 189.173 133.257 C 184.948 133.257,183.788 133.321,183.697 133.558 M194.256 135.934 L 194.191 138.383 189.066 138.383 L 183.941 138.383 183.876 135.934 L 183.811 133.485 189.066 133.485 L 194.321 133.485 194.256 135.934 M184.567 155.081 L 183.599 155.151 183.599 157.751 L 183.599 160.350 180.923 160.414 L 178.246 160.478 178.182 165.376 C 178.096 171.903,177.810 171.298,180.984 171.298 L 183.599 171.298 183.599 173.672 C 183.599 176.976,183.404 176.765,186.464 176.765 L 189.052 176.765 189.116 179.556 L 189.180 182.346 197.267 182.346 L 205.353 182.346 205.417 179.677 L 205.481 177.008 208.151 176.943 L 210.820 176.879 210.820 168.679 L 210.820 160.478 208.144 160.414 L 205.467 160.350 205.467 157.738 C 205.467 155.412,205.423 155.122,205.068 155.097 C 204.135 155.032,185.448 155.018,184.567 155.081 M205.239 157.859 L 205.239 160.364 202.429 160.364 C 200.883 160.364,196.066 160.432,191.723 160.515 L 183.827 160.666 183.827 158.010 L 183.827 155.353 194.533 155.353 L 205.239 155.353 205.239 157.859 M205.467 168.679 L 205.467 176.765 197.262 176.765 L 189.058 176.765 189.119 171.355 L 189.180 165.945 191.800 165.831 L 194.419 165.718 194.484 163.155 L 194.548 160.592 200.007 160.592 L 205.467 160.592 205.467 168.679 M183.599 163.447 L 183.599 166.074 181.036 166.010 L 178.474 165.945 178.409 163.383 L 178.345 160.820 180.972 160.820 L 183.599 160.820 183.599 163.447 M210.706 168.679 L 210.706 176.538 208.200 176.538 L 205.695 176.538 205.695 168.679 L 205.695 160.820 208.200 160.820 L 210.706 160.820 210.706 168.679 M205.190 179.556 L 205.255 182.005 197.274 182.005 L 189.294 182.005 189.294 179.651 C 189.294 178.356,189.347 177.243,189.413 177.178 C 189.478 177.112,193.040 177.070,197.329 177.083 L 205.125 177.107 205.190 179.556 " stroke="none" fill="#4c342b" fill-rule="evenodd"></path><path id="path4" d="M101.966 35.592 C 101.786 36.264,101.781 55.891,101.961 56.360 C 102.075 56.659,102.538 56.720,104.694 56.720 L 107.289 56.720 107.289 61.826 C 107.289 68.248,106.997 67.654,110.154 67.654 L 112.742 67.654 112.806 70.330 L 112.870 73.007 115.540 73.071 L 118.209 73.135 118.273 75.804 L 118.337 78.474 121.007 78.538 L 123.676 78.602 123.740 81.271 L 123.804 83.941 126.481 84.005 L 129.157 84.069 129.157 86.795 L 129.157 89.522 131.777 89.522 C 133.371 89.522,134.396 89.433,134.396 89.294 C 134.396 89.156,133.409 89.066,131.891 89.066 L 129.385 89.066 129.385 86.693 C 129.385 83.388,129.581 83.599,126.513 83.599 L 123.918 83.599 123.918 81.226 C 123.918 77.921,124.114 78.132,121.046 78.132 L 118.451 78.132 118.451 75.759 C 118.451 72.454,118.647 72.665,115.579 72.665 L 112.984 72.665 112.984 70.292 C 112.984 66.987,113.180 67.198,110.112 67.198 L 107.517 67.198 107.517 62.092 C 107.517 55.668,107.811 56.264,104.643 56.264 L 102.045 56.264 102.105 45.957 L 102.164 35.649 107.346 35.588 C 110.542 35.550,112.528 35.441,112.528 35.303 C 112.528 35.164,110.573 35.080,107.316 35.080 L 102.103 35.080 101.966 35.592 M112.604 40.661 C 112.707 40.969,123.462 41.093,123.462 40.786 C 123.462 40.648,121.383 40.538,117.995 40.498 C 114.423 40.455,112.554 40.512,112.604 40.661 M123.537 46.128 C 123.638 46.429,128.929 46.561,128.929 46.262 C 128.929 46.135,127.767 46.011,126.195 45.970 C 124.443 45.925,123.489 45.982,123.537 46.128 M276.538 46.241 C 276.538 46.387,278.436 46.469,281.777 46.469 L 287.016 46.469 287.016 56.834 L 287.016 67.198 284.421 67.198 C 281.353 67.198,281.549 66.987,281.549 70.292 L 281.549 72.665 278.954 72.665 C 275.886 72.665,276.082 72.454,276.082 75.759 L 276.082 78.132 270.729 78.132 C 267.312 78.132,265.376 78.215,265.376 78.360 C 265.376 78.505,267.350 78.588,270.843 78.588 L 276.310 78.588 276.310 75.854 L 276.310 73.121 279.043 73.121 L 281.777 73.121 281.777 70.387 L 281.777 67.654 284.510 67.654 L 287.244 67.654 287.244 56.834 L 287.244 46.014 281.891 46.014 C 278.474 46.014,276.538 46.096,276.538 46.241 M129.004 51.595 C 129.105 51.895,134.396 52.027,134.396 51.729 C 134.396 51.602,133.234 51.478,131.662 51.437 C 129.910 51.392,128.956 51.449,129.004 51.595 M268.280 51.427 C 263.113 51.465,260.137 51.569,260.137 51.711 C 260.137 52.035,276.233 52.017,276.433 51.693 C 276.648 51.346,277.137 51.362,268.280 51.427 M134.472 57.062 C 134.575 57.370,145.330 57.494,145.330 57.187 C 145.330 57.049,143.251 56.939,139.863 56.899 C 136.291 56.856,134.422 56.913,134.472 57.062 M249.251 59.624 L 249.299 62.301 249.373 59.852 L 249.446 57.403 254.664 57.403 C 257.897 57.403,259.936 57.317,260.023 57.175 C 260.115 57.026,258.279 56.948,254.683 56.948 L 249.203 56.948 249.251 59.624 M145.405 62.528 C 145.506 62.829,150.797 62.961,150.797 62.663 C 150.797 62.536,149.635 62.411,148.063 62.371 C 146.311 62.326,145.357 62.382,145.405 62.528 M238.317 65.091 L 238.366 67.768 238.439 65.319 L 238.512 62.870 243.730 62.870 C 246.963 62.870,249.002 62.784,249.089 62.642 C 249.181 62.493,247.345 62.415,243.749 62.415 L 238.269 62.415 238.317 65.091 M150.872 67.995 C 150.973 68.296,156.264 68.428,156.264 68.130 C 156.264 68.003,155.102 67.878,153.530 67.838 C 151.778 67.793,150.824 67.849,150.872 67.995 M232.850 70.558 L 232.899 73.235 232.972 70.786 L 233.045 68.337 235.530 68.337 C 236.940 68.337,238.075 68.239,238.155 68.109 C 238.246 67.962,237.322 67.882,235.549 67.882 L 232.802 67.882 232.850 70.558 M156.339 73.462 C 156.440 73.763,161.731 73.895,161.731 73.597 C 161.731 73.470,160.569 73.345,158.997 73.305 C 157.245 73.260,156.291 73.316,156.339 73.462 M178.360 73.576 C 178.360 73.727,185.725 73.804,200.000 73.804 C 214.275 73.804,221.640 73.727,221.640 73.576 C 221.640 73.426,214.275 73.349,200.000 73.349 C 185.725 73.349,178.360 73.426,178.360 73.576 M227.285 76.025 L 227.221 78.702 224.459 78.702 C 222.343 78.702,221.723 78.768,221.807 78.986 C 221.957 79.377,226.900 79.387,227.289 78.998 C 227.468 78.819,227.563 77.874,227.563 76.264 L 227.563 73.804 230.055 73.804 C 231.471 73.804,232.608 73.706,232.688 73.576 C 232.779 73.429,231.857 73.349,230.089 73.349 L 227.349 73.349 227.285 76.025 M161.806 78.929 C 161.849 79.058,162.990 79.185,164.418 79.222 L 166.955 79.286 167.028 81.613 L 167.102 83.941 167.150 81.392 L 167.198 78.842 164.464 78.772 C 162.712 78.727,161.758 78.783,161.806 78.929 M175.569 78.766 C 174.040 78.802,172.893 78.924,172.893 79.051 C 172.893 79.361,178.063 79.340,178.255 79.028 C 178.466 78.688,178.534 78.695,175.569 78.766 M265.148 81.207 L 265.148 83.599 262.656 83.599 C 261.240 83.599,260.103 83.697,260.023 83.827 C 259.932 83.974,260.856 84.055,262.629 84.055 L 265.376 84.055 265.376 81.435 C 265.376 79.994,265.325 78.815,265.262 78.815 C 265.199 78.815,265.148 79.892,265.148 81.207 M134.548 83.751 C 134.465 83.834,134.396 83.963,134.396 84.036 C 134.396 84.109,136.907 84.139,139.977 84.104 C 143.370 84.065,145.558 83.953,145.558 83.819 C 145.558 83.570,134.795 83.504,134.548 83.751 M167.274 84.396 C 167.319 84.531,168.451 84.624,170.046 84.624 C 171.640 84.624,172.772 84.531,172.817 84.396 C 172.865 84.253,171.843 84.169,170.046 84.169 C 168.249 84.169,167.226 84.253,167.274 84.396 M145.554 86.902 L 145.444 89.636 142.772 89.700 L 140.099 89.764 140.038 95.167 L 139.977 100.569 137.301 100.634 L 134.624 100.698 134.624 108.753 C 134.624 115.888,134.583 116.824,134.264 116.946 C 134.066 117.022,132.836 117.084,131.530 117.084 L 129.157 117.084 129.211 127.847 L 129.264 138.610 129.382 128.018 L 129.499 117.426 131.996 117.361 C 133.643 117.318,134.553 117.201,134.669 117.019 C 134.766 116.867,134.847 113.232,134.848 108.941 L 134.852 101.139 137.227 101.139 C 140.532 101.139,140.319 101.540,140.319 95.314 L 140.319 90.205 142.817 90.205 C 145.894 90.205,145.827 90.284,145.732 86.732 L 145.663 84.169 145.554 86.902 M254.442 89.294 C 254.442 89.433,255.505 89.522,257.175 89.522 C 258.846 89.522,259.909 89.433,259.909 89.294 C 259.909 89.155,258.846 89.066,257.175 89.066 C 255.505 89.066,254.442 89.155,254.442 89.294 M254.517 95.330 C 254.617 95.631,259.909 95.763,259.909 95.465 C 259.909 95.337,258.747 95.213,257.175 95.173 C 255.423 95.128,254.468 95.184,254.517 95.330 M259.984 100.797 C 260.027 100.926,261.169 101.053,262.601 101.089 L 265.142 101.154 265.205 108.948 L 265.268 116.743 265.322 108.726 L 265.376 100.710 262.642 100.640 C 260.890 100.595,259.935 100.651,259.984 100.797 M156.264 105.695 C 156.264 105.840,158.276 105.923,161.845 105.923 C 165.414 105.923,167.426 105.840,167.426 105.695 C 167.426 105.549,165.414 105.467,161.845 105.467 C 158.276 105.467,156.264 105.549,156.264 105.695 M221.792 105.619 C 221.708 105.702,221.640 105.830,221.640 105.904 C 221.640 105.977,224.148 106.007,227.213 105.972 L 232.787 105.907 232.851 108.591 L 232.916 111.276 235.592 111.340 C 237.266 111.380,238.269 111.319,238.269 111.176 C 238.269 111.042,237.218 110.922,235.706 110.884 L 233.144 110.820 233.087 108.656 C 233.056 107.466,232.977 106.261,232.912 105.979 L 232.793 105.467 227.368 105.467 C 224.385 105.467,221.875 105.535,221.792 105.619 M153.474 110.876 C 149.908 110.972,149.954 111.390,153.531 111.390 C 155.809 111.390,156.264 111.333,156.264 111.048 C 156.264 110.860,156.239 110.728,156.207 110.755 C 156.176 110.782,154.946 110.837,153.474 110.876 M167.426 111.105 C 167.426 111.317,168.125 111.390,170.159 111.390 C 173.734 111.390,173.733 110.982,170.159 110.890 C 168.086 110.837,167.425 110.889,167.426 111.105 M216.325 111.086 C 215.960 111.450,216.326 111.499,218.906 111.433 C 220.413 111.394,221.640 111.267,221.640 111.148 C 221.640 110.907,216.564 110.847,216.325 111.086 M156.413 111.560 C 156.354 111.654,157.142 111.704,158.164 111.670 C 161.513 111.559,161.892 111.470,159.182 111.429 C 157.717 111.407,156.471 111.466,156.413 111.560 M221.868 114.123 L 221.868 116.871 224.544 116.807 L 227.221 116.743 227.221 114.123 L 227.221 111.503 224.544 111.439 L 221.868 111.375 221.868 114.123 M227.107 114.123 L 227.107 116.629 224.601 116.629 L 222.096 116.629 222.096 114.123 L 222.096 111.617 224.601 111.617 L 227.107 111.617 227.107 114.123 M238.367 116.856 C 238.367 119.801,238.399 121.005,238.439 119.533 C 238.479 118.061,238.479 115.652,238.439 114.180 C 238.399 112.708,238.367 113.912,238.367 116.856 M157.811 116.798 C 158.599 116.842,159.829 116.842,160.544 116.797 C 161.260 116.752,160.615 116.715,159.112 116.716 C 157.608 116.716,157.023 116.753,157.811 116.798 M265.376 117.050 C 265.376 117.209,266.289 117.320,267.938 117.362 L 270.501 117.426 270.618 128.018 L 270.736 138.610 270.789 127.847 L 270.843 117.084 268.622 117.081 C 267.400 117.079,266.170 117.016,265.888 116.941 C 265.588 116.860,265.376 116.905,265.376 117.050 M216.173 122.323 C 216.173 122.456,216.301 122.609,216.458 122.662 C 216.987 122.840,221.641 122.894,221.640 122.722 C 221.640 122.628,220.608 122.551,219.347 122.551 C 218.086 122.551,216.856 122.445,216.614 122.315 C 216.306 122.151,216.173 122.153,216.173 122.323 M150.797 122.593 C 150.797 122.737,156.022 122.970,156.245 122.836 C 156.530 122.665,155.889 122.591,153.474 122.517 C 152.002 122.471,150.797 122.506,150.797 122.593 M167.818 122.511 C 167.603 122.552,167.426 122.691,167.426 122.820 C 167.426 122.950,167.588 122.993,167.786 122.917 C 167.984 122.841,169.215 122.779,170.520 122.779 C 171.825 122.779,172.893 122.702,172.893 122.608 C 172.893 122.443,168.616 122.361,167.818 122.511 M233.194 122.511 C 232.850 122.576,232.802 122.903,232.802 125.163 C 232.802 127.304,232.741 127.765,232.442 127.880 C 231.782 128.133,222.550 128.034,222.054 127.768 C 221.686 127.571,221.609 127.583,221.690 127.825 C 221.771 128.069,222.924 128.145,227.291 128.193 L 232.791 128.254 232.911 127.738 C 232.976 127.453,233.056 126.247,233.087 125.057 L 233.144 122.893 235.706 122.829 C 237.116 122.793,238.269 122.691,238.269 122.601 C 238.269 122.441,233.972 122.365,233.194 122.511 M156.264 128.075 C 156.264 128.169,158.776 128.246,161.845 128.246 C 164.915 128.246,167.426 128.169,167.426 128.075 C 167.426 127.981,164.914 127.904,161.845 127.904 C 158.775 127.904,156.264 127.981,156.264 128.075 M183.607 133.015 C 183.331 133.531,183.293 138.476,183.562 138.899 C 183.793 139.263,194.563 139.204,194.685 138.838 C 194.735 138.689,192.826 138.633,189.173 138.675 L 183.585 138.740 183.649 135.942 L 183.713 133.144 188.924 133.082 C 192.576 133.039,194.228 133.099,194.448 133.281 C 194.666 133.462,194.761 133.466,194.761 133.293 C 194.761 132.416,184.070 132.149,183.607 133.015 M270.843 138.945 C 270.843 139.093,271.814 139.180,273.462 139.180 L 276.082 139.180 276.082 157.954 C 276.082 168.280,276.144 176.890,276.220 177.088 C 276.335 177.388,276.797 177.449,278.954 177.449 L 281.549 177.449 281.549 193.280 L 281.549 209.112 205.239 209.112 C 137.560 209.112,128.929 209.150,128.929 209.453 C 128.929 209.756,137.573 209.795,205.353 209.795 L 281.777 209.795 281.777 193.394 L 281.777 176.993 279.045 176.993 L 276.312 176.993 276.254 157.916 L 276.196 138.838 273.519 138.774 C 271.791 138.733,270.843 138.793,270.843 138.945 M254.528 152.164 C 254.528 153.605,254.565 154.194,254.610 153.474 C 254.655 152.753,254.655 151.575,254.610 150.854 C 254.565 150.134,254.528 150.723,254.528 152.164 M183.607 154.883 C 183.477 155.125,183.371 156.355,183.371 157.616 L 183.371 159.909 180.874 159.909 C 177.696 159.909,177.904 159.486,177.904 165.945 C 177.904 172.405,177.696 171.982,180.874 171.982 L 183.371 171.982 183.371 174.275 C 183.371 177.512,183.312 177.449,186.341 177.449 L 188.838 177.449 188.838 179.822 C 188.838 181.127,188.900 182.357,188.977 182.555 C 189.099 182.875,190.045 182.916,197.287 182.916 L 205.458 182.916 205.587 182.402 C 205.658 182.120,205.681 181.069,205.637 180.068 L 205.559 178.246 205.513 180.353 L 205.467 182.460 197.267 182.460 L 189.066 182.460 189.066 179.734 L 189.066 177.008 186.390 176.943 L 183.713 176.879 183.649 174.210 L 183.585 171.541 180.915 171.476 L 178.246 171.412 178.246 165.945 L 178.246 160.478 180.915 160.414 L 183.585 160.350 183.649 157.681 L 183.713 155.011 194.590 154.952 L 205.467 154.893 205.467 157.268 C 205.467 160.576,205.271 160.364,208.339 160.364 L 210.934 160.364 210.934 168.679 L 210.934 176.993 208.339 176.993 C 206.473 176.993,205.713 177.073,205.634 177.278 C 205.483 177.670,210.732 177.544,210.983 177.149 C 211.186 176.830,211.225 160.794,211.023 160.269 C 210.909 159.970,210.446 159.909,208.290 159.909 L 205.695 159.909 205.695 157.449 C 205.695 155.839,205.600 154.894,205.421 154.715 C 204.884 154.178,183.898 154.339,183.607 154.883 M259.961 160.402 C 259.922 164.462,259.839 165.822,259.624 165.908 C 259.401 165.998,259.403 166.027,259.631 166.041 C 260.117 166.071,260.148 165.676,260.080 160.246 L 260.014 155.011 259.961 160.402 M139.863 160.099 C 139.863 160.245,139.633 160.376,139.351 160.391 C 138.929 160.413,138.913 160.437,139.261 160.526 C 139.715 160.643,140.276 160.246,140.019 159.989 C 139.933 159.903,139.863 159.953,139.863 160.099 M194.685 160.744 C 194.601 160.828,194.533 162.054,194.533 163.470 L 194.533 166.045 191.856 166.109 L 189.180 166.173 189.119 171.469 L 189.058 176.765 197.148 176.765 C 202.390 176.765,205.239 176.685,205.239 176.538 C 205.239 176.390,202.430 176.310,197.267 176.310 L 189.294 176.310 189.294 171.420 L 189.294 166.529 191.970 166.465 L 194.647 166.401 194.711 163.724 L 194.775 161.048 200.007 161.048 C 203.343 161.048,205.239 160.965,205.239 160.820 C 205.239 160.564,194.939 160.490,194.685 160.744 M123.738 163.269 L 123.690 165.831 126.437 165.831 C 128.210 165.831,129.134 165.751,129.043 165.604 C 128.963 165.474,127.829 165.376,126.418 165.376 L 123.934 165.376 123.860 163.041 L 123.786 160.706 123.738 163.269 M129.210 171.355 L 129.157 176.765 131.893 176.765 L 134.629 176.765 134.569 187.756 L 134.510 198.747 131.834 198.811 L 129.157 198.876 129.206 201.545 L 129.254 204.214 129.327 201.765 L 129.400 199.317 131.853 199.317 C 133.457 199.317,134.400 199.222,134.579 199.043 C 134.868 198.754,134.997 177.409,134.714 176.670 C 134.599 176.371,134.137 176.310,131.984 176.310 L 129.394 176.310 129.328 171.128 L 129.262 165.945 129.210 171.355 M254.490 168.850 L 254.442 171.298 246.374 171.298 C 241.092 171.298,238.267 171.218,238.191 171.065 C 238.127 170.937,238.102 170.962,238.134 171.122 C 238.223 171.560,254.403 171.664,254.571 171.228 C 254.635 171.061,254.653 169.907,254.612 168.663 L 254.537 166.401 254.490 168.850 " stroke="none" fill="#e38f59" fill-rule="evenodd"></path><path id="path5" d="M156.492 114.123 L 156.492 116.629 159.112 116.629 L 161.731 116.629 161.731 114.123 L 161.731 111.617 159.112 111.617 L 156.492 111.617 156.492 114.123 M222.096 114.123 L 222.096 116.629 224.601 116.629 L 227.107 116.629 227.107 114.123 L 227.107 111.617 224.601 111.617 L 222.096 111.617 222.096 114.123 M128.929 210.023 C 128.929 210.174,154.594 210.251,205.467 210.251 C 256.340 210.251,282.005 210.174,282.005 210.023 C 282.005 209.871,256.340 209.795,205.467 209.795 C 154.594 209.795,128.929 209.871,128.929 210.023 " stroke="none" fill="#fafafa" fill-rule="evenodd"></path></g></svg>